<?xml version="1.0" encoding="utf-8" standalone="no"?>
<!DOCTYPE svg PUBLIC "-//W3C//DTD SVG 1.1//EN"
  "http://www.w3.org/Graphics/SVG/1.1/DTD/svg11.dtd">
<!-- Created with matplotlib (https://matplotlib.org/) -->
<svg height="576pt" version="1.1" viewBox="0 0 576 576" width="576pt" xmlns="http://www.w3.org/2000/svg" xmlns:xlink="http://www.w3.org/1999/xlink">
 <defs>
  <style type="text/css">
*{stroke-linecap:butt;stroke-linejoin:round;}
  </style>
 </defs>
 <g id="figure_1">
  <g id="patch_1">
   <path d="M 0 576 
L 576 576 
L 576 0 
L 0 0 
z
" style="fill:#ffffff;"/>
  </g>
  <g id="axes_1">
   <g id="line2d_1">
    <path clip-path="url(#pdf2ea5ee70)" d="M 92.290909 290.88 
L 96.390083 278.656646 
L 100.489256 266.875077 
L 104.58843 255.961107 
L 108.687603 246.309198 
L 112.786777 238.268193 
L 116.88595 232.128716 
L 120.985124 228.112664 
L 125.084298 226.365187 
L 129.183471 226.949443 
L 133.282645 229.844316 
L 137.381818 234.945178 
L 141.480992 242.067669 
L 145.580165 250.954366 
L 149.679339 261.284079 
L 153.778512 272.683466 
L 157.877686 284.740523 
L 161.97686 297.019477 
L 166.076033 309.076534 
L 170.175207 320.475921 
L 174.27438 330.805634 
L 178.373554 339.692331 
L 182.472727 346.814822 
L 186.571901 351.915684 
L 190.671074 354.810557 
L 194.770248 355.394813 
L 198.869421 353.647336 
L 202.968595 349.631284 
L 207.067769 343.491807 
L 211.166942 335.450802 
L 215.266116 325.798893 
L 219.365289 314.884923 
L 223.464463 303.103354 
L 227.563636 290.88 
L 231.66281 278.656646 
L 235.761983 266.875077 
L 239.861157 255.961107 
L 243.960331 246.309198 
L 248.059504 238.268193 
L 252.158678 232.128716 
L 256.257851 228.112664 
L 260.357025 226.365187 
L 264.456198 226.949443 
L 268.555372 229.844316 
L 272.654545 234.945178 
L 276.753719 242.067669 
L 280.852893 250.954366 
L 284.952066 261.284079 
L 289.05124 272.683466 
L 293.150413 284.740523 
L 297.249587 297.019477 
L 301.34876 309.076534 
L 305.447934 320.475921 
L 309.547107 330.805634 
L 313.646281 339.692331 
L 317.745455 346.814822 
L 321.844628 351.915684 
L 325.943802 354.810557 
L 330.042975 355.394813 
L 334.142149 353.647336 
L 338.241322 349.631284 
L 342.340496 343.491807 
L 346.439669 335.450802 
L 350.538843 325.798893 
L 354.638017 314.884923 
L 358.73719 303.103354 
L 362.836364 290.88 
L 366.935537 278.656646 
L 371.034711 266.875077 
L 375.133884 255.961107 
L 379.233058 246.309198 
L 383.332231 238.268193 
L 387.431405 232.128716 
L 391.530579 228.112664 
L 395.629752 226.365187 
L 399.728926 226.949443 
L 403.828099 229.844316 
L 407.927273 234.945178 
L 412.026446 242.067669 
L 416.12562 250.954366 
L 420.224793 261.284079 
L 424.323967 272.683466 
L 428.42314 284.740523 
L 432.522314 297.019477 
L 436.621488 309.076534 
L 440.720661 320.475921 
L 444.819835 330.805634 
L 448.919008 339.692331 
L 453.018182 346.814822 
L 457.117355 351.915684 
L 461.216529 354.810557 
L 465.315702 355.394813 
L 469.414876 353.647336 
L 473.51405 349.631284 
L 477.613223 343.491807 
L 481.712397 335.450802 
L 485.81157 325.798893 
L 489.910744 314.884923 
L 494.009917 303.103354 
L 498.109091 290.88 
" style="fill:none;stroke:#1f77b4;stroke-linecap:round;stroke-width:1.5;"/>
   </g>
  </g>
 </g>
 <defs>
  <clipPath id="pdf2ea5ee70">
   <rect height="443.52" width="446.4" x="72" y="69.12"/>
  </clipPath>
 </defs>
</svg>
